<mxfile host="app.diagrams.net" agent="Mozilla/5.0 (Windows NT 10.0; Win64; x64) AppleWebKit/537.36 (KHTML, like Gecko) Chrome/140.0.0.0 Safari/537.36" version="28.2.0">
  <diagram name="Página-1" id="ZmiVusArg0eAbAJM250A">
    <mxGraphModel dx="1042" dy="527" grid="1" gridSize="10" guides="1" tooltips="1" connect="1" arrows="1" fold="1" page="1" pageScale="1" pageWidth="827" pageHeight="1169" math="0" shadow="0">
      <root>
        <mxCell id="0" />
        <mxCell id="1" parent="0" />
        <mxCell id="7BSrLb9yEdah-kjwerx5-20" style="edgeStyle=orthogonalEdgeStyle;rounded=0;orthogonalLoop=1;jettySize=auto;html=1;exitX=0.5;exitY=0.5;exitDx=0;exitDy=0;exitPerimeter=0;entryX=0;entryY=0.5;entryDx=0;entryDy=0;" edge="1" parent="1" source="7BSrLb9yEdah-kjwerx5-21">
          <mxGeometry relative="1" as="geometry">
            <mxPoint x="520" y="710" as="targetPoint" />
          </mxGeometry>
        </mxCell>
        <mxCell id="7BSrLb9yEdah-kjwerx5-21" value="MOTORISTA" style="shape=umlActor;verticalLabelPosition=bottom;verticalAlign=top;html=1;outlineConnect=0;" vertex="1" parent="1">
          <mxGeometry x="210" y="570" width="40" height="80" as="geometry" />
        </mxCell>
        <mxCell id="7BSrLb9yEdah-kjwerx5-27" style="edgeStyle=orthogonalEdgeStyle;rounded=0;orthogonalLoop=1;jettySize=auto;html=1;" edge="1" parent="1" source="7BSrLb9yEdah-kjwerx5-28">
          <mxGeometry relative="1" as="geometry">
            <mxPoint x="2340" y="710" as="sourcePoint" />
            <mxPoint x="580" y="750" as="targetPoint" />
          </mxGeometry>
        </mxCell>
        <mxCell id="7BSrLb9yEdah-kjwerx5-28" value="ADM" style="shape=umlActor;verticalLabelPosition=bottom;verticalAlign=top;html=1;outlineConnect=0;" vertex="1" parent="1">
          <mxGeometry x="170" y="830" width="40" height="80" as="geometry" />
        </mxCell>
        <mxCell id="7BSrLb9yEdah-kjwerx5-32" value="CASO DE USO 02&lt;div&gt;&lt;br&gt;&lt;/div&gt;" style="rounded=1;whiteSpace=wrap;html=1;strokeWidth=3;fontSize=23;" vertex="1" parent="1">
          <mxGeometry x="780" y="190" width="1200" height="60" as="geometry" />
        </mxCell>
        <mxCell id="7BSrLb9yEdah-kjwerx5-68" style="edgeStyle=orthogonalEdgeStyle;rounded=0;orthogonalLoop=1;jettySize=auto;html=1;exitX=0.5;exitY=0.5;exitDx=0;exitDy=0;exitPerimeter=0;" edge="1" parent="1" source="7BSrLb9yEdah-kjwerx5-69" target="7BSrLb9yEdah-kjwerx5-70">
          <mxGeometry relative="1" as="geometry" />
        </mxCell>
        <mxCell id="7BSrLb9yEdah-kjwerx5-69" value="MOTORISTA" style="shape=umlActor;verticalLabelPosition=bottom;verticalAlign=top;html=1;outlineConnect=0;" vertex="1" parent="1">
          <mxGeometry x="1840" y="1320" width="40" height="80" as="geometry" />
        </mxCell>
        <mxCell id="7BSrLb9yEdah-kjwerx5-70" value="REPORTAR POBLEMA" style="ellipse;whiteSpace=wrap;html=1;" vertex="1" parent="1">
          <mxGeometry x="2080" y="1320" width="120" height="80" as="geometry" />
        </mxCell>
        <mxCell id="7BSrLb9yEdah-kjwerx5-71" value="list:&lt;div&gt;ATRASO:&lt;div&gt;POBLEMA MECÂNICO&lt;/div&gt;&lt;div&gt;SINISTRO&lt;/div&gt;&lt;/div&gt;" style="ellipse;whiteSpace=wrap;html=1;" vertex="1" parent="1">
          <mxGeometry x="2330" y="1220" width="140" height="80" as="geometry" />
        </mxCell>
        <mxCell id="7BSrLb9yEdah-kjwerx5-72" value="Aviso de problema reportado" style="ellipse;whiteSpace=wrap;html=1;" vertex="1" parent="1">
          <mxGeometry x="2817" y="1373" width="120" height="80" as="geometry" />
        </mxCell>
        <mxCell id="7BSrLb9yEdah-kjwerx5-73" value="Opção selecionada&lt;div&gt;+&lt;/div&gt;&lt;div&gt;Campo de observação&lt;/div&gt;" style="ellipse;whiteSpace=wrap;html=1;" vertex="1" parent="1">
          <mxGeometry x="2550" y="1333" width="140" height="80" as="geometry" />
        </mxCell>
        <mxCell id="7BSrLb9yEdah-kjwerx5-74" value="Análise" style="ellipse;whiteSpace=wrap;html=1;" vertex="1" parent="1">
          <mxGeometry x="2930" y="1230" width="120" height="80" as="geometry" />
        </mxCell>
        <mxCell id="7BSrLb9yEdah-kjwerx5-75" value="Envio de novos horários" style="ellipse;whiteSpace=wrap;html=1;" vertex="1" parent="1">
          <mxGeometry x="3191" y="1130" width="120" height="80" as="geometry" />
        </mxCell>
        <mxCell id="7BSrLb9yEdah-kjwerx5-76" style="edgeStyle=orthogonalEdgeStyle;rounded=0;orthogonalLoop=1;jettySize=auto;html=1;exitX=0.5;exitY=0.5;exitDx=0;exitDy=0;exitPerimeter=0;entryX=1;entryY=0.5;entryDx=0;entryDy=0;" edge="1" parent="1" source="7BSrLb9yEdah-kjwerx5-77" target="7BSrLb9yEdah-kjwerx5-72">
          <mxGeometry relative="1" as="geometry" />
        </mxCell>
        <mxCell id="7BSrLb9yEdah-kjwerx5-77" value="ADM" style="shape=umlActor;verticalLabelPosition=bottom;verticalAlign=top;html=1;outlineConnect=0;" vertex="1" parent="1">
          <mxGeometry x="3269" y="1440" width="40" height="80" as="geometry" />
        </mxCell>
        <mxCell id="7BSrLb9yEdah-kjwerx5-78" value="&amp;lt;&amp;lt;extend&amp;gt;&amp;gt;" style="html=1;verticalAlign=bottom;labelBackgroundColor=none;endArrow=open;endFill=0;dashed=1;rounded=0;exitX=1;exitY=0.5;exitDx=0;exitDy=0;" edge="1" parent="1" source="7BSrLb9yEdah-kjwerx5-74" target="7BSrLb9yEdah-kjwerx5-75">
          <mxGeometry width="160" relative="1" as="geometry">
            <mxPoint x="2890" y="800" as="sourcePoint" />
            <mxPoint x="3050" y="800" as="targetPoint" />
          </mxGeometry>
        </mxCell>
        <mxCell id="7BSrLb9yEdah-kjwerx5-79" value="&amp;lt;&amp;lt;include&amp;gt;&amp;gt;" style="html=1;verticalAlign=bottom;labelBackgroundColor=none;endArrow=open;endFill=0;dashed=1;rounded=0;exitX=1;exitY=0;exitDx=0;exitDy=0;entryX=0;entryY=1;entryDx=0;entryDy=0;" edge="1" parent="1" source="7BSrLb9yEdah-kjwerx5-72" target="7BSrLb9yEdah-kjwerx5-74">
          <mxGeometry x="0.3028" y="5" width="160" relative="1" as="geometry">
            <mxPoint x="2710" y="780" as="sourcePoint" />
            <mxPoint x="2870" y="780" as="targetPoint" />
            <mxPoint as="offset" />
          </mxGeometry>
        </mxCell>
        <mxCell id="7BSrLb9yEdah-kjwerx5-80" value="&amp;lt;&amp;lt;include&amp;gt;&amp;gt;" style="html=1;verticalAlign=bottom;labelBackgroundColor=none;endArrow=open;endFill=0;dashed=1;rounded=0;exitX=0.5;exitY=1;exitDx=0;exitDy=0;" edge="1" parent="1" source="7BSrLb9yEdah-kjwerx5-73" target="7BSrLb9yEdah-kjwerx5-72">
          <mxGeometry x="0.2977" y="10" width="160" relative="1" as="geometry">
            <mxPoint x="2570" y="720" as="sourcePoint" />
            <mxPoint x="2730" y="720" as="targetPoint" />
            <mxPoint as="offset" />
          </mxGeometry>
        </mxCell>
        <mxCell id="7BSrLb9yEdah-kjwerx5-81" value="&amp;lt;&amp;lt;include&amp;gt;&amp;gt;" style="html=1;verticalAlign=bottom;labelBackgroundColor=none;endArrow=open;endFill=0;dashed=1;rounded=0;exitX=0.955;exitY=0.289;exitDx=0;exitDy=0;exitPerimeter=0;entryX=0;entryY=1;entryDx=0;entryDy=0;" edge="1" parent="1" source="7BSrLb9yEdah-kjwerx5-71" target="7BSrLb9yEdah-kjwerx5-73">
          <mxGeometry x="-0.0968" y="8" width="160" relative="1" as="geometry">
            <mxPoint x="2560" y="730" as="sourcePoint" />
            <mxPoint x="2720" y="730" as="targetPoint" />
            <mxPoint as="offset" />
          </mxGeometry>
        </mxCell>
        <mxCell id="7BSrLb9yEdah-kjwerx5-82" value="&amp;lt;&amp;lt;include&amp;gt;&amp;gt;" style="html=1;verticalAlign=bottom;labelBackgroundColor=none;endArrow=open;endFill=0;dashed=1;rounded=0;exitX=1;exitY=0;exitDx=0;exitDy=0;" edge="1" parent="1" source="7BSrLb9yEdah-kjwerx5-70" target="7BSrLb9yEdah-kjwerx5-71">
          <mxGeometry x="-0.3391" y="12" width="160" relative="1" as="geometry">
            <mxPoint x="2260" y="740" as="sourcePoint" />
            <mxPoint x="2420" y="740" as="targetPoint" />
            <mxPoint as="offset" />
          </mxGeometry>
        </mxCell>
        <mxCell id="7BSrLb9yEdah-kjwerx5-83" value="CASO DE USO 05&lt;div&gt;&lt;br&gt;&lt;/div&gt;" style="rounded=1;whiteSpace=wrap;html=1;strokeWidth=3;fontSize=23;" vertex="1" parent="1">
          <mxGeometry x="1930" y="930" width="1200" height="60" as="geometry" />
        </mxCell>
      </root>
    </mxGraphModel>
  </diagram>
</mxfile>
